<?xml version="1.0" encoding="UTF-8" standalone="no"?>
<!DOCTYPE svg PUBLIC "-//W3C//DTD SVG 1.1//EN"
"http://www.w3.org/Graphics/SVG/1.1/DTD/svg11.dtd">


<!-- Page 1 -->
<svg x="0" y="0" width="785" height="527" viewBox="0 0 785 527" version="1.1" xmlns="http://www.w3.org/2000/svg" xmlns:xlink="http://www.w3.org/1999/xlink"
style="display: block;margin-left: auto;margin-right: auto;">
<defs>

<style type="text/css"><![CDATA[

.g1_1{
fill: #FFFFFF;
fill-opacity: 0;
}
.g2_1{
fill: #5B9BD5;
}
.g3_1{
fill: #EAEFF7;
}
.g4_1{
fill: none;
stroke: #FFFFFF;
stroke-width: 1.5277778;
stroke-linecap: butt;
stroke-linejoin: round;
}
.g5_1{
fill: #ED7D31;
}
.g6_1{
fill: none;
stroke: #41719C;
stroke-width: 1.5277778;
stroke-linecap: butt;
stroke-linejoin: miter;
stroke-miterlimit: 8;
}

.s1_1{
font-size: 21.39px;
font-family: CambriaMath_9;
fill: #000000;
}
.s2_1{
font-size: 15.28px;
font-family: CambriaMath_9;
fill: #000000;
}
.s3_1{
font-size: 12.22px;
font-family: Calibri-Bold_b;
fill: #000000;
}
.s4_1{
font-size: 10.69px;
font-family: Calibri-Bold_b;
fill: #000000;
}

]]></style>

</defs>
<path d="M0,0
L0,527
L785,527
L785,0 Z " 
fill="#FFFFFF" stroke="none" />
<path d="M0,527.1l785.3,0L785.3,0L0,0L0,527.1Z" class="g1_1" />
<path fill-rule="evenodd" d="M37.4,76.7l25,0l0,-25.6l-25,0l0,25.6Z" class="g2_1" />
<path fill-rule="evenodd" d="M62.4,76.7l25.3,0l0,-25.6l-25.3,0l0,25.6Z" class="g2_1" />
<path fill-rule="evenodd" d="M87.7,76.7l25.3,0l0,-25.6l-25.3,0l0,25.6Z" class="g2_1" />
<path fill-rule="evenodd" d="M113,76.7l25.3,0l0,-25.6l-25.3,0l0,25.6Z" class="g2_1" />
<path fill-rule="evenodd" d="M138.3,76.7l25.3,0l0,-25.6l-25.3,0l0,25.6Z" class="g2_1" />
<path fill-rule="evenodd" d="M37.4,102.4l25,0l0,-25.7l-25,0l0,25.7Z" class="g3_1" />
<path fill-rule="evenodd" d="M62.4,102.4l25.3,0l0,-25.7l-25.3,0l0,25.7Z" class="g3_1" />
<path fill-rule="evenodd" d="M87.7,102.4l25.3,0l0,-25.7l-25.3,0l0,25.7Z" class="g3_1" />
<path fill-rule="evenodd" d="M113,102.4l25.3,0l0,-25.7l-25.3,0l0,25.7Z" class="g3_1" />
<path fill-rule="evenodd" d="M138.3,102.4l25.3,0l0,-25.7l-25.3,0l0,25.7Z" class="g3_1" />
<path fill-rule="evenodd" d="M37.4,128.1l25,0l0,-25.7l-25,0l0,25.7Z" class="g3_1" />
<path fill-rule="evenodd" d="M62.4,128.1l25.3,0l0,-25.7l-25.3,0l0,25.7Z" class="g3_1" />
<path fill-rule="evenodd" d="M87.7,128.1l25.3,0l0,-25.7l-25.3,0l0,25.7Z" class="g3_1" />
<path fill-rule="evenodd" d="M113,128.1l25.3,0l0,-25.7l-25.3,0l0,25.7Z" class="g3_1" />
<path fill-rule="evenodd" d="M138.3,128.1l25.3,0l0,-25.7l-25.3,0l0,25.7Z" class="g3_1" />
<path fill-rule="evenodd" d="M37.4,153.7l25,0l0,-25.6l-25,0l0,25.6Z" class="g3_1" />
<path fill-rule="evenodd" d="M62.4,153.7l25.3,0l0,-25.6l-25.3,0l0,25.6Z" class="g3_1" />
<path fill-rule="evenodd" d="M87.7,153.7l25.3,0l0,-25.6l-25.3,0l0,25.6Z" class="g3_1" />
<path fill-rule="evenodd" d="M113,153.7l25.3,0l0,-25.6l-25.3,0l0,25.6Z" class="g3_1" />
<path fill-rule="evenodd" d="M138.3,153.7l25.3,0l0,-25.6l-25.3,0l0,25.6Z" class="g3_1" />
<path fill-rule="evenodd" d="M37.4,179.4l25,0l0,-25.7l-25,0l0,25.7Z" class="g2_1" />
<path fill-rule="evenodd" d="M62.4,179.4l25.3,0l0,-25.7l-25.3,0l0,25.7Z" class="g2_1" />
<path fill-rule="evenodd" d="M87.7,179.4l25.3,0l0,-25.7l-25.3,0l0,25.7Z" class="g2_1" />
<path fill-rule="evenodd" d="M113,179.4l25.3,0l0,-25.7l-25.3,0l0,25.7Z" class="g2_1" />
<path fill-rule="evenodd" d="M138.3,179.4l25.3,0l0,-25.7l-25.3,0l0,25.7Z" class="g2_1" />
<path fill-rule="evenodd" d="M37.4,205.1l25,0l0,-25.7l-25,0l0,25.7Z" class="g3_1" />
<path fill-rule="evenodd" d="M62.4,205.1l25.3,0l0,-25.7l-25.3,0l0,25.7Z" class="g3_1" />
<path fill-rule="evenodd" d="M87.7,205.1l25.3,0l0,-25.7l-25.3,0l0,25.7Z" class="g3_1" />
<path fill-rule="evenodd" d="M113,205.1l25.3,0l0,-25.7l-25.3,0l0,25.7Z" class="g3_1" />
<path fill-rule="evenodd" d="M138.3,205.1l25.3,0l0,-25.7l-25.3,0l0,25.7Z" class="g3_1" />
<path fill-rule="evenodd" d="M37.4,230.7l25,0l0,-25.6l-25,0l0,25.6Z" class="g3_1" />
<path fill-rule="evenodd" d="M62.4,230.7l25.3,0l0,-25.6l-25.3,0l0,25.6Z" class="g3_1" />
<path fill-rule="evenodd" d="M87.7,230.7l25.3,0l0,-25.6l-25.3,0l0,25.6Z" class="g3_1" />
<path fill-rule="evenodd" d="M113,230.7l25.3,0l0,-25.6l-25.3,0l0,25.6Z" class="g3_1" />
<path fill-rule="evenodd" d="M138.3,230.7l25.3,0l0,-25.6l-25.3,0l0,25.6Z" class="g3_1" />
<path fill-rule="evenodd" d="M37.4,256.4l25,0l0,-25.7l-25,0l0,25.7Z" class="g3_1" />
<path fill-rule="evenodd" d="M62.4,256.4l25.3,0l0,-25.7l-25.3,0l0,25.7Z" class="g3_1" />
<path fill-rule="evenodd" d="M87.7,256.4l25.3,0l0,-25.7l-25.3,0l0,25.7Z" class="g3_1" />
<path fill-rule="evenodd" d="M113,256.4l25.3,0l0,-25.7l-25.3,0l0,25.7Z" class="g3_1" />
<path fill-rule="evenodd" d="M138.3,256.4l25.3,0l0,-25.7l-25.3,0l0,25.7Z" class="g3_1" />
<path d="M62.4,50.3l0,206.9" class="g4_1" />
<path d="M87.7,50.3l0,206.9" class="g4_1" />
<path d="M113,50.3l0,206.9" class="g4_1" />
<path d="M138.3,50.3l0,206.9" class="g4_1" />
<path d="M36.6,76.7l127.8,0" class="g4_1" />
<path d="M36.6,102.4l127.8,0" class="g4_1" />
<path d="M36.6,128.1l127.8,0" class="g4_1" />
<path d="M36.6,153.7l127.8,0" class="g4_1" />
<path d="M36.6,179.4l127.8,0" class="g4_1" />
<path d="M36.6,205.1l127.8,0" class="g4_1" />
<path d="M36.6,230.7l127.8,0" class="g4_1" />
<path d="M37.4,50.3l0,206.9" class="g4_1" />
<path d="M163.6,50.3l0,206.9" class="g4_1" />
<path d="M36.6,51.1l127.8,0" class="g4_1" />
<path d="M36.6,256.4l127.8,0" class="g4_1" />
<path fill-rule="evenodd" d="M192,76.7l25.3,0l0,-25.6l-25.3,0l0,25.6Z" class="g3_1" />
<path fill-rule="evenodd" d="M217.3,76.7l25.3,0l0,-25.6l-25.3,0l0,25.6Z" class="g3_1" />
<path fill-rule="evenodd" d="M242.6,76.7l25.3,0l0,-25.6l-25.3,0l0,25.6Z" class="g3_1" />
<path fill-rule="evenodd" d="M267.9,76.7l25.3,0l0,-25.6l-25.3,0l0,25.6Z" class="g3_1" />
<path fill-rule="evenodd" d="M293.2,76.7l25.3,0l0,-25.6l-25.3,0l0,25.6Z" class="g3_1" />
<path fill-rule="evenodd" d="M318.5,76.7l25.3,0l0,-25.6l-25.3,0l0,25.6Z" class="g3_1" />
<path fill-rule="evenodd" d="M343.8,76.7l25.3,0l0,-25.6l-25.3,0l0,25.6Z" class="g3_1" />
<path fill-rule="evenodd" d="M192,102.4l25.3,0l0,-25.7l-25.3,0l0,25.7Z" class="g2_1" />
<path fill-rule="evenodd" d="M217.3,102.4l25.3,0l0,-25.7l-25.3,0l0,25.7Z" class="g2_1" />
<path fill-rule="evenodd" d="M242.6,102.4l25.3,0l0,-25.7l-25.3,0l0,25.7Z" class="g2_1" />
<path fill-rule="evenodd" d="M267.9,102.4l25.3,0l0,-25.7l-25.3,0l0,25.7Z" class="g2_1" />
<path fill-rule="evenodd" d="M293.2,102.4l25.3,0l0,-25.7l-25.3,0l0,25.7Z" class="g2_1" />
<path fill-rule="evenodd" d="M318.5,102.4l25.3,0l0,-25.7l-25.3,0l0,25.7Z" class="g2_1" />
<path fill-rule="evenodd" d="M343.8,102.4l25.3,0l0,-25.7l-25.3,0l0,25.7Z" class="g2_1" />
<path fill-rule="evenodd" d="M192,128.1l25.3,0l0,-25.7l-25.3,0l0,25.7Z" class="g3_1" />
<path fill-rule="evenodd" d="M217.3,128.1l25.3,0l0,-25.7l-25.3,0l0,25.7Z" class="g3_1" />
<path fill-rule="evenodd" d="M242.6,128.1l25.3,0l0,-25.7l-25.3,0l0,25.7Z" class="g3_1" />
<path fill-rule="evenodd" d="M267.9,128.1l25.3,0l0,-25.7l-25.3,0l0,25.7Z" class="g3_1" />
<path fill-rule="evenodd" d="M293.2,128.1l25.3,0l0,-25.7l-25.3,0l0,25.7Z" class="g3_1" />
<path fill-rule="evenodd" d="M318.5,128.1l25.3,0l0,-25.7l-25.3,0l0,25.7Z" class="g3_1" />
<path fill-rule="evenodd" d="M343.8,128.1l25.3,0l0,-25.7l-25.3,0l0,25.7Z" class="g3_1" />
<path fill-rule="evenodd" d="M192,153.7l25.3,0l0,-25.6l-25.3,0l0,25.6Z" class="g2_1" />
<path fill-rule="evenodd" d="M217.3,153.7l25.3,0l0,-25.6l-25.3,0l0,25.6Z" class="g2_1" />
<path fill-rule="evenodd" d="M242.6,153.7l25.3,0l0,-25.6l-25.3,0l0,25.6Z" class="g2_1" />
<path fill-rule="evenodd" d="M267.9,153.7l25.3,0l0,-25.6l-25.3,0l0,25.6Z" class="g2_1" />
<path fill-rule="evenodd" d="M293.2,153.7l25.3,0l0,-25.6l-25.3,0l0,25.6Z" class="g2_1" />
<path fill-rule="evenodd" d="M318.5,153.7l25.3,0l0,-25.6l-25.3,0l0,25.6Z" class="g2_1" />
<path fill-rule="evenodd" d="M343.8,153.7l25.3,0l0,-25.6l-25.3,0l0,25.6Z" class="g2_1" />
<path fill-rule="evenodd" d="M192,179.4l25.3,0l0,-25.7l-25.3,0l0,25.7Z" class="g2_1" />
<path fill-rule="evenodd" d="M217.3,179.4l25.3,0l0,-25.7l-25.3,0l0,25.7Z" class="g2_1" />
<path fill-rule="evenodd" d="M242.6,179.4l25.3,0l0,-25.7l-25.3,0l0,25.7Z" class="g2_1" />
<path fill-rule="evenodd" d="M267.9,179.4l25.3,0l0,-25.7l-25.3,0l0,25.7Z" class="g2_1" />
<path fill-rule="evenodd" d="M293.2,179.4l25.3,0l0,-25.7l-25.3,0l0,25.7Z" class="g2_1" />
<path fill-rule="evenodd" d="M318.5,179.4l25.3,0l0,-25.7l-25.3,0l0,25.7Z" class="g2_1" />
<path fill-rule="evenodd" d="M343.8,179.4l25.3,0l0,-25.7l-25.3,0l0,25.7Z" class="g2_1" />
<path fill-rule="evenodd" d="M192,205.1l25.3,0l0,-25.7l-25.3,0l0,25.7Z" class="g3_1" />
<path fill-rule="evenodd" d="M217.3,205.1l25.3,0l0,-25.7l-25.3,0l0,25.7Z" class="g3_1" />
<path fill-rule="evenodd" d="M242.6,205.1l25.3,0l0,-25.7l-25.3,0l0,25.7Z" class="g3_1" />
<path fill-rule="evenodd" d="M267.9,205.1l25.3,0l0,-25.7l-25.3,0l0,25.7Z" class="g3_1" />
<path fill-rule="evenodd" d="M293.2,205.1l25.3,0l0,-25.7l-25.3,0l0,25.7Z" class="g3_1" />
<path fill-rule="evenodd" d="M318.5,205.1l25.3,0l0,-25.7l-25.3,0l0,25.7Z" class="g3_1" />
<path fill-rule="evenodd" d="M343.8,205.1l25.3,0l0,-25.7l-25.3,0l0,25.7Z" class="g3_1" />
<path fill-rule="evenodd" d="M192,230.7l25.3,0l0,-25.6l-25.3,0l0,25.6Z" class="g3_1" />
<path fill-rule="evenodd" d="M217.3,230.7l25.3,0l0,-25.6l-25.3,0l0,25.6Z" class="g3_1" />
<path fill-rule="evenodd" d="M242.6,230.7l25.3,0l0,-25.6l-25.3,0l0,25.6Z" class="g3_1" />
<path fill-rule="evenodd" d="M267.9,230.7l25.3,0l0,-25.6l-25.3,0l0,25.6Z" class="g3_1" />
<path fill-rule="evenodd" d="M293.2,230.7l25.3,0l0,-25.6l-25.3,0l0,25.6Z" class="g3_1" />
<path fill-rule="evenodd" d="M318.5,230.7l25.3,0l0,-25.6l-25.3,0l0,25.6Z" class="g3_1" />
<path fill-rule="evenodd" d="M343.8,230.7l25.3,0l0,-25.6l-25.3,0l0,25.6Z" class="g3_1" />
<path fill-rule="evenodd" d="M192,256.4l25.3,0l0,-25.7l-25.3,0l0,25.7Z" class="g3_1" />
<path fill-rule="evenodd" d="M217.3,256.4l25.3,0l0,-25.7l-25.3,0l0,25.7Z" class="g3_1" />
<path fill-rule="evenodd" d="M242.6,256.4l25.3,0l0,-25.7l-25.3,0l0,25.7Z" class="g3_1" />
<path fill-rule="evenodd" d="M267.9,256.4l25.3,0l0,-25.7l-25.3,0l0,25.7Z" class="g3_1" />
<path fill-rule="evenodd" d="M293.2,256.4l25.3,0l0,-25.7l-25.3,0l0,25.7Z" class="g3_1" />
<path fill-rule="evenodd" d="M318.5,256.4l25.3,0l0,-25.7l-25.3,0l0,25.7Z" class="g3_1" />
<path fill-rule="evenodd" d="M343.8,256.4l25.3,0l0,-25.7l-25.3,0l0,25.7Z" class="g3_1" />
<path d="M217.3,50.3l0,206.9" class="g4_1" />
<path d="M242.6,50.3l0,206.9" class="g4_1" />
<path d="M267.9,50.3l0,206.9" class="g4_1" />
<path d="M293.2,50.3l0,206.9" class="g4_1" />
<path d="M318.5,50.3l0,206.9" class="g4_1" />
<path d="M343.8,50.3l0,206.9" class="g4_1" />
<path d="M191.2,76.7l178.6,0" class="g4_1" />
<path d="M191.2,102.4l178.6,0" class="g4_1" />
<path d="M191.2,128.1l178.6,0" class="g4_1" />
<path d="M191.2,153.7l178.6,0" class="g4_1" />
<path d="M191.2,179.4l178.6,0" class="g4_1" />
<path d="M191.2,205.1l178.6,0" class="g4_1" />
<path d="M191.2,230.7l178.6,0" class="g4_1" />
<path d="M192,50.3l0,206.9" class="g4_1" />
<path d="M369.1,50.3l0,206.9" class="g4_1" />
<path d="M191.2,51.1l178.6,0" class="g4_1" />
<path d="M191.2,256.4l178.6,0" class="g4_1" />
<path fill-rule="evenodd" d="M399.1,76.7l25.3,0l0,-25.6l-25.3,0l0,25.6Z" class="g3_1" />
<path fill-rule="evenodd" d="M424.4,76.7l25.3,0l0,-25.6l-25.3,0l0,25.6Z" class="g3_1" />
<path fill-rule="evenodd" d="M449.7,76.7l25.3,0l0,-25.6l-25.3,0l0,25.6Z" class="g3_1" />
<path fill-rule="evenodd" d="M475,76.7l25.3,0l0,-25.6l-25.3,0l0,25.6Z" class="g3_1" />
<path fill-rule="evenodd" d="M500.3,76.7l25.3,0l0,-25.6l-25.3,0l0,25.6Z" class="g3_1" />
<path fill-rule="evenodd" d="M399.1,102.4l25.3,0l0,-25.7l-25.3,0l0,25.7Z" class="g3_1" />
<path fill-rule="evenodd" d="M424.4,102.4l25.3,0l0,-25.7l-25.3,0l0,25.7Z" class="g3_1" />
<path fill-rule="evenodd" d="M449.7,102.4l25.3,0l0,-25.7l-25.3,0l0,25.7Z" class="g3_1" />
<path fill-rule="evenodd" d="M475,102.4l25.3,0l0,-25.7l-25.3,0l0,25.7Z" class="g3_1" />
<path fill-rule="evenodd" d="M500.3,102.4l25.3,0l0,-25.7l-25.3,0l0,25.7Z" class="g3_1" />
<path fill-rule="evenodd" d="M399.1,128.1l25.3,0l0,-25.7l-25.3,0l0,25.7Z" class="g2_1" />
<path fill-rule="evenodd" d="M424.4,128.1l25.3,0l0,-25.7l-25.3,0l0,25.7Z" class="g2_1" />
<path fill-rule="evenodd" d="M449.7,128.1l25.3,0l0,-25.7l-25.3,0l0,25.7Z" class="g2_1" />
<path fill-rule="evenodd" d="M475,128.1l25.3,0l0,-25.7l-25.3,0l0,25.7Z" class="g2_1" />
<path fill-rule="evenodd" d="M500.3,128.1l25.3,0l0,-25.7l-25.3,0l0,25.7Z" class="g2_1" />
<path fill-rule="evenodd" d="M399.1,153.7l25.3,0l0,-25.6l-25.3,0l0,25.6Z" class="g3_1" />
<path fill-rule="evenodd" d="M424.4,153.7l25.3,0l0,-25.6l-25.3,0l0,25.6Z" class="g3_1" />
<path fill-rule="evenodd" d="M449.7,153.7l25.3,0l0,-25.6l-25.3,0l0,25.6Z" class="g3_1" />
<path fill-rule="evenodd" d="M475,153.7l25.3,0l0,-25.6l-25.3,0l0,25.6Z" class="g3_1" />
<path fill-rule="evenodd" d="M500.3,153.7l25.3,0l0,-25.6l-25.3,0l0,25.6Z" class="g3_1" />
<path fill-rule="evenodd" d="M399.1,179.4l25.3,0l0,-25.7l-25.3,0l0,25.7Z" class="g3_1" />
<path fill-rule="evenodd" d="M424.4,179.4l25.3,0l0,-25.7l-25.3,0l0,25.7Z" class="g3_1" />
<path fill-rule="evenodd" d="M449.7,179.4l25.3,0l0,-25.7l-25.3,0l0,25.7Z" class="g3_1" />
<path fill-rule="evenodd" d="M475,179.4l25.3,0l0,-25.7l-25.3,0l0,25.7Z" class="g3_1" />
<path fill-rule="evenodd" d="M500.3,179.4l25.3,0l0,-25.7l-25.3,0l0,25.7Z" class="g3_1" />
<path fill-rule="evenodd" d="M399.1,205.1l25.3,0l0,-25.7l-25.3,0l0,25.7Z" class="g2_1" />
<path fill-rule="evenodd" d="M424.4,205.1l25.3,0l0,-25.7l-25.3,0l0,25.7Z" class="g2_1" />
<path fill-rule="evenodd" d="M449.7,205.1l25.3,0l0,-25.7l-25.3,0l0,25.7Z" class="g2_1" />
<path fill-rule="evenodd" d="M475,205.1l25.3,0l0,-25.7l-25.3,0l0,25.7Z" class="g2_1" />
<path fill-rule="evenodd" d="M500.3,205.1l25.3,0l0,-25.7l-25.3,0l0,25.7Z" class="g2_1" />
<path fill-rule="evenodd" d="M399.1,230.7l25.3,0l0,-25.6l-25.3,0l0,25.6Z" class="g3_1" />
<path fill-rule="evenodd" d="M424.4,230.7l25.3,0l0,-25.6l-25.3,0l0,25.6Z" class="g3_1" />
<path fill-rule="evenodd" d="M449.7,230.7l25.3,0l0,-25.6l-25.3,0l0,25.6Z" class="g3_1" />
<path fill-rule="evenodd" d="M475,230.7l25.3,0l0,-25.6l-25.3,0l0,25.6Z" class="g3_1" />
<path fill-rule="evenodd" d="M500.3,230.7l25.3,0l0,-25.6l-25.3,0l0,25.6Z" class="g3_1" />
<path fill-rule="evenodd" d="M399.1,256.4l25.3,0l0,-25.7l-25.3,0l0,25.7Z" class="g2_1" />
<path fill-rule="evenodd" d="M424.4,256.4l25.3,0l0,-25.7l-25.3,0l0,25.7Z" class="g2_1" />
<path fill-rule="evenodd" d="M449.7,256.4l25.3,0l0,-25.7l-25.3,0l0,25.7Z" class="g2_1" />
<path fill-rule="evenodd" d="M475,256.4l25.3,0l0,-25.7l-25.3,0l0,25.7Z" class="g2_1" />
<path fill-rule="evenodd" d="M500.3,256.4l25.3,0l0,-25.7l-25.3,0l0,25.7Z" class="g2_1" />
<path d="M424.4,50.3l0,206.9" class="g4_1" />
<path d="M449.7,50.3l0,206.9" class="g4_1" />
<path d="M475,50.3l0,206.9" class="g4_1" />
<path d="M500.3,50.3l0,206.9" class="g4_1" />
<path d="M398.4,76.7l128,0" class="g4_1" />
<path d="M398.4,102.4l128,0" class="g4_1" />
<path d="M398.4,128.1l128,0" class="g4_1" />
<path d="M398.4,153.7l128,0" class="g4_1" />
<path d="M398.4,179.4l128,0" class="g4_1" />
<path d="M398.4,205.1l128,0" class="g4_1" />
<path d="M398.4,230.7l128,0" class="g4_1" />
<path d="M399.1,50.3l0,206.9" class="g4_1" />
<path d="M525.6,50.3l0,206.9" class="g4_1" />
<path d="M398.4,51.1l128,0" class="g4_1" />
<path d="M398.4,256.4l128,0" class="g4_1" />
<path fill-rule="evenodd" d="M554,76.7l25,0l0,-25.6l-25,0l0,25.6Z" class="g2_1" />
<path fill-rule="evenodd" d="M579,76.7l25.1,0l0,-25.6l-25.1,0l0,25.6Z" class="g2_1" />
<path fill-rule="evenodd" d="M604.1,76.7l25.1,0l0,-25.6l-25.1,0l0,25.6Z" class="g2_1" />
<path fill-rule="evenodd" d="M629.2,76.7l25,0l0,-25.6l-25,0l0,25.6Z" class="g2_1" />
<path fill-rule="evenodd" d="M654.2,76.7l25.1,0l0,-25.6l-25.1,0l0,25.6Z" class="g2_1" />
<path fill-rule="evenodd" d="M554,102.4l25,0l0,-25.7l-25,0l0,25.7Z" class="g3_1" />
<path fill-rule="evenodd" d="M579,102.4l25.1,0l0,-25.7l-25.1,0l0,25.7Z" class="g3_1" />
<path fill-rule="evenodd" d="M604.1,102.4l25.1,0l0,-25.7l-25.1,0l0,25.7Z" class="g3_1" />
<path fill-rule="evenodd" d="M629.2,102.4l25,0l0,-25.7l-25,0l0,25.7Z" class="g3_1" />
<path fill-rule="evenodd" d="M654.2,102.4l25.1,0l0,-25.7l-25.1,0l0,25.7Z" class="g3_1" />
<path fill-rule="evenodd" d="M554,128.1l25,0l0,-25.7l-25,0l0,25.7Z" class="g3_1" />
<path fill-rule="evenodd" d="M579,128.1l25.1,0l0,-25.7l-25.1,0l0,25.7Z" class="g3_1" />
<path fill-rule="evenodd" d="M604.1,128.1l25.1,0l0,-25.7l-25.1,0l0,25.7Z" class="g3_1" />
<path fill-rule="evenodd" d="M629.2,128.1l25,0l0,-25.7l-25,0l0,25.7Z" class="g3_1" />
<path fill-rule="evenodd" d="M654.2,128.1l25.1,0l0,-25.7l-25.1,0l0,25.7Z" class="g3_1" />
<path fill-rule="evenodd" d="M554,153.7l25,0l0,-25.6l-25,0l0,25.6Z" class="g2_1" />
<path fill-rule="evenodd" d="M579,153.7l25.1,0l0,-25.6l-25.1,0l0,25.6Z" class="g2_1" />
<path fill-rule="evenodd" d="M604.1,153.7l25.1,0l0,-25.6l-25.1,0l0,25.6Z" class="g2_1" />
<path fill-rule="evenodd" d="M629.2,153.7l25,0l0,-25.6l-25,0l0,25.6Z" class="g2_1" />
<path fill-rule="evenodd" d="M654.2,153.7l25.1,0l0,-25.6l-25.1,0l0,25.6Z" class="g2_1" />
<path fill-rule="evenodd" d="M554,179.4l25,0l0,-25.7l-25,0l0,25.7Z" class="g2_1" />
<path fill-rule="evenodd" d="M579,179.4l25.1,0l0,-25.7l-25.1,0l0,25.7Z" class="g2_1" />
<path fill-rule="evenodd" d="M604.1,179.4l25.1,0l0,-25.7l-25.1,0l0,25.7Z" class="g2_1" />
<path fill-rule="evenodd" d="M629.2,179.4l25,0l0,-25.7l-25,0l0,25.7Z" class="g2_1" />
<path fill-rule="evenodd" d="M654.2,179.4l25.1,0l0,-25.7l-25.1,0l0,25.7Z" class="g2_1" />
<path fill-rule="evenodd" d="M554,205.1l25,0l0,-25.7l-25,0l0,25.7Z" class="g3_1" />
<path fill-rule="evenodd" d="M579,205.1l25.1,0l0,-25.7l-25.1,0l0,25.7Z" class="g3_1" />
<path fill-rule="evenodd" d="M604.1,205.1l25.1,0l0,-25.7l-25.1,0l0,25.7Z" class="g3_1" />
<path fill-rule="evenodd" d="M629.2,205.1l25,0l0,-25.7l-25,0l0,25.7Z" class="g3_1" />
<path fill-rule="evenodd" d="M654.2,205.1l25.1,0l0,-25.7l-25.1,0l0,25.7Z" class="g3_1" />
<path fill-rule="evenodd" d="M554,230.7l25,0l0,-25.6l-25,0l0,25.6Z" class="g2_1" />
<path fill-rule="evenodd" d="M579,230.7l25.1,0l0,-25.6l-25.1,0l0,25.6Z" class="g2_1" />
<path fill-rule="evenodd" d="M604.1,230.7l25.1,0l0,-25.6l-25.1,0l0,25.6Z" class="g2_1" />
<path fill-rule="evenodd" d="M629.2,230.7l25,0l0,-25.6l-25,0l0,25.6Z" class="g2_1" />
<path fill-rule="evenodd" d="M654.2,230.7l25.1,0l0,-25.6l-25.1,0l0,25.6Z" class="g2_1" />
<path fill-rule="evenodd" d="M554,256.4l25,0l0,-25.7l-25,0l0,25.7Z" class="g3_1" />
<path fill-rule="evenodd" d="M579,256.4l25.1,0l0,-25.7l-25.1,0l0,25.7Z" class="g3_1" />
<path fill-rule="evenodd" d="M604.1,256.4l25.1,0l0,-25.7l-25.1,0l0,25.7Z" class="g3_1" />
<path fill-rule="evenodd" d="M629.2,256.4l25,0l0,-25.7l-25,0l0,25.7Z" class="g3_1" />
<path fill-rule="evenodd" d="M654.2,256.4l25.1,0l0,-25.7l-25.1,0l0,25.7Z" class="g3_1" />
<path d="M579,50.3l0,206.9" class="g4_1" />
<path d="M604.1,50.3l0,206.9" class="g4_1" />
<path d="M629.2,50.3l0,206.9" class="g4_1" />
<path d="M654.2,50.3l0,206.9" class="g4_1" />
<path d="M553.2,76.7l126.8,0" class="g4_1" />
<path d="M553.2,102.4l126.8,0" class="g4_1" />
<path d="M553.2,128.1l126.8,0" class="g4_1" />
<path d="M553.2,153.7l126.8,0" class="g4_1" />
<path d="M553.2,179.4l126.8,0" class="g4_1" />
<path d="M553.2,205.1l126.8,0" class="g4_1" />
<path d="M553.2,230.7l126.8,0" class="g4_1" />
<path d="M554,50.3l0,206.9" class="g4_1" />
<path d="M679.3,50.3l0,206.9" class="g4_1" />
<path d="M553.2,51.1l126.8,0" class="g4_1" />
<path d="M553.2,256.4l126.8,0" class="g4_1" />
<path fill-rule="evenodd" d="M733.2,76.7l25.1,0l0,-25.6l-25.1,0l0,25.6Z" class="g2_1" />
<path fill-rule="evenodd" d="M758.3,76.7l25,0l0,-25.6l-25,0l0,25.6Z" class="g2_1" />
<path fill-rule="evenodd" d="M733.2,102.4l25.1,0l0,-25.7l-25.1,0l0,25.7Z" class="g2_1" />
<path fill-rule="evenodd" d="M758.3,102.4l25,0l0,-25.7l-25,0l0,25.7Z" class="g2_1" />
<path fill-rule="evenodd" d="M733.2,128.1l25.1,0l0,-25.7l-25.1,0l0,25.7Z" class="g2_1" />
<path fill-rule="evenodd" d="M758.3,128.1l25,0l0,-25.7l-25,0l0,25.7Z" class="g2_1" />
<path fill-rule="evenodd" d="M733.2,153.7l25.1,0l0,-25.6l-25.1,0l0,25.6Z" class="g2_1" />
<path fill-rule="evenodd" d="M758.3,153.7l25,0l0,-25.6l-25,0l0,25.6Z" class="g2_1" />
<path fill-rule="evenodd" d="M733.2,179.4l25.1,0l0,-25.7l-25.1,0l0,25.7Z" class="g2_1" />
<path fill-rule="evenodd" d="M758.3,179.4l25,0l0,-25.7l-25,0l0,25.7Z" class="g2_1" />
<path fill-rule="evenodd" d="M733.2,205.1l25.1,0l0,-25.7l-25.1,0l0,25.7Z" class="g2_1" />
<path fill-rule="evenodd" d="M758.3,205.1l25,0l0,-25.7l-25,0l0,25.7Z" class="g2_1" />
<path fill-rule="evenodd" d="M733.2,230.7l25.1,0l0,-25.6l-25.1,0l0,25.6Z" class="g2_1" />
<path fill-rule="evenodd" d="M758.3,230.7l25,0l0,-25.6l-25,0l0,25.6Z" class="g2_1" />
<path fill-rule="evenodd" d="M733.2,256.4l25.1,0l0,-25.7l-25.1,0l0,25.7Z" class="g2_1" />
<path fill-rule="evenodd" d="M758.3,256.4l25,0l0,-25.7l-25,0l0,25.7Z" class="g2_1" />
<path d="M758.3,50.3l0,206.9" class="g4_1" />
<path d="M732.5,76.7l51.6,0" class="g4_1" />
<path d="M732.5,102.4l51.6,0" class="g4_1" />
<path d="M732.5,128.1l51.6,0" class="g4_1" />
<path d="M732.5,153.7l51.6,0" class="g4_1" />
<path d="M732.5,179.4l51.6,0" class="g4_1" />
<path d="M732.5,205.1l51.6,0" class="g4_1" />
<path d="M732.5,230.7l51.6,0" class="g4_1" />
<path d="M733.2,50.3l0,206.9" class="g4_1" />
<path d="M783.3,50.3l0,206.9" class="g4_1" />
<path d="M732.5,51.1l51.6,0" class="g4_1" />
<path d="M732.5,256.4l51.6,0" class="g4_1" />
<text 
x="84" 
y="26" 
dx="0" 
class="s1_1"
>°</text>

<text 
x="95" 
y="31" 
dx="0" 
class="s2_1"
>"</text>

<text 
x="264" 
y="26" 
dx="0" 
class="s1_1"
>°</text>

<text 
x="275" 
y="31" 
dx="0" 
class="s2_1"
>#</text>

<text 
x="446" 
y="26" 
dx="0" 
class="s1_1"
>°</text>

<text 
x="457" 
y="31" 
dx="0" 
class="s2_1"
>$</text>

<text 
x="601" 
y="26" 
dx="0" 
class="s1_1"
>°</text>

<text 
x="612" 
y="31" 
dx="0" 
class="s2_1"
>%</text>

<text 
x="732" 
y="26" 
dx="0" 
class="s1_1"
>±</text>

<path d="M1,76.7l26.6,0" class="g4_1" />
<path d="M1,102.4l26.6,0" class="g4_1" />
<path d="M1,128.1l26.6,0" class="g4_1" />
<path d="M1,153.7l26.6,0" class="g4_1" />
<path d="M1,179.4l26.6,0" class="g4_1" />
<path d="M1,205.1l26.6,0" class="g4_1" />
<path d="M1,230.7l26.6,0" class="g4_1" />
<path d="M1.7,50.3l0,206.9" class="g4_1" />
<path d="M26.8,50.3l0,206.9" class="g4_1" />
<path d="M1,51.1l26.6,0" class="g4_1" />
<path d="M1,256.4l26.6,0" class="g4_1" />
<text 
x="7" 
y="67" 
dx="0" 
class="s3_1"
>1</text>

<text 
x="7" 
y="92" 
dx="0" 
class="s3_1"
>2</text>

<text 
x="7" 
y="118" 
dx="0" 
class="s3_1"
>3</text>

<text 
x="7" 
y="144" 
dx="0" 
class="s3_1"
>4</text>

<text 
x="7" 
y="169" 
dx="0" 
class="s3_1"
>5</text>

<text 
x="7" 
y="195" 
dx="0" 
class="s3_1"
>6</text>

<text 
x="7" 
y="221" 
dx="0" 
class="s3_1"
>7</text>

<text 
x="7" 
y="246" 
dx="0" 
class="s3_1"
>8</text>

<path fill-rule="evenodd" d="M37.1,345.9l25.3,0l0,-25.7l-25.3,0l0,25.7Z" class="g2_1" />
<path fill-rule="evenodd" d="M62.4,345.9l25.3,0l0,-25.7l-25.3,0l0,25.7Z" class="g2_1" />
<path fill-rule="evenodd" d="M87.7,345.9l25.3,0l0,-25.7l-25.3,0l0,25.7Z" class="g2_1" />
<path fill-rule="evenodd" d="M113,345.9l25.3,0l0,-25.7l-25.3,0l0,25.7Z" class="g2_1" />
<path fill-rule="evenodd" d="M138.3,345.9l25.3,0l0,-25.7l-25.3,0l0,25.7Z" class="g2_1" />
<path fill-rule="evenodd" d="M37.1,371.5l25.3,0l0,-25.6l-25.3,0l0,25.6Z" class="g2_1" />
<path fill-rule="evenodd" d="M62.4,371.5l25.3,0l0,-25.6l-25.3,0l0,25.6Z" class="g2_1" />
<path fill-rule="evenodd" d="M87.7,371.5l25.3,0l0,-25.6l-25.3,0l0,25.6Z" class="g2_1" />
<path fill-rule="evenodd" d="M113,371.5l25.3,0l0,-25.6l-25.3,0l0,25.6Z" class="g2_1" />
<path fill-rule="evenodd" d="M138.3,371.5l25.3,0l0,-25.6l-25.3,0l0,25.6Z" class="g2_1" />
<path d="M62.4,319.5l0,52.8" class="g4_1" />
<path d="M87.7,319.5l0,52.8" class="g4_1" />
<path d="M113,319.5l0,52.8" class="g4_1" />
<path d="M138.3,319.5l0,52.8" class="g4_1" />
<path d="M36.4,345.9l128,0" class="g4_1" />
<path d="M37.1,319.5l0,52.8" class="g4_1" />
<path d="M163.6,319.5l0,52.8" class="g4_1" />
<path d="M36.4,320.2l128,0" class="g4_1" />
<path d="M36.4,371.5l128,0" class="g4_1" />
<path fill-rule="evenodd" d="M192,345.9l25.3,0l0,-25.7l-25.3,0l0,25.7Z" class="g2_1" />
<path fill-rule="evenodd" d="M217.3,345.9l25.3,0l0,-25.7l-25.3,0l0,25.7Z" class="g2_1" />
<path fill-rule="evenodd" d="M242.6,345.9l25.3,0l0,-25.7l-25.3,0l0,25.7Z" class="g2_1" />
<path fill-rule="evenodd" d="M267.9,345.9l25.3,0l0,-25.7l-25.3,0l0,25.7Z" class="g2_1" />
<path fill-rule="evenodd" d="M293.2,345.9l25.3,0l0,-25.7l-25.3,0l0,25.7Z" class="g2_1" />
<path fill-rule="evenodd" d="M318.5,345.9l25.3,0l0,-25.7l-25.3,0l0,25.7Z" class="g2_1" />
<path fill-rule="evenodd" d="M343.8,345.9l25.3,0l0,-25.7l-25.3,0l0,25.7Z" class="g2_1" />
<path fill-rule="evenodd" d="M192,371.5l25.3,0l0,-25.6l-25.3,0l0,25.6Z" class="g2_1" />
<path fill-rule="evenodd" d="M217.3,371.5l25.3,0l0,-25.6l-25.3,0l0,25.6Z" class="g2_1" />
<path fill-rule="evenodd" d="M242.6,371.5l25.3,0l0,-25.6l-25.3,0l0,25.6Z" class="g2_1" />
<path fill-rule="evenodd" d="M267.9,371.5l25.3,0l0,-25.6l-25.3,0l0,25.6Z" class="g2_1" />
<path fill-rule="evenodd" d="M293.2,371.5l25.3,0l0,-25.6l-25.3,0l0,25.6Z" class="g2_1" />
<path fill-rule="evenodd" d="M318.5,371.5l25.3,0l0,-25.6l-25.3,0l0,25.6Z" class="g2_1" />
<path fill-rule="evenodd" d="M343.8,371.5l25.3,0l0,-25.6l-25.3,0l0,25.6Z" class="g2_1" />
<path fill-rule="evenodd" d="M192,397.2l25.3,0l0,-25.7l-25.3,0l0,25.7Z" class="g2_1" />
<path fill-rule="evenodd" d="M217.3,397.2l25.3,0l0,-25.7l-25.3,0l0,25.7Z" class="g2_1" />
<path fill-rule="evenodd" d="M242.6,397.2l25.3,0l0,-25.7l-25.3,0l0,25.7Z" class="g2_1" />
<path fill-rule="evenodd" d="M267.9,397.2l25.3,0l0,-25.7l-25.3,0l0,25.7Z" class="g2_1" />
<path fill-rule="evenodd" d="M293.2,397.2l25.3,0l0,-25.7l-25.3,0l0,25.7Z" class="g2_1" />
<path fill-rule="evenodd" d="M318.5,397.2l25.3,0l0,-25.7l-25.3,0l0,25.7Z" class="g2_1" />
<path fill-rule="evenodd" d="M343.8,397.2l25.3,0l0,-25.7l-25.3,0l0,25.7Z" class="g2_1" />
<path d="M217.3,319.5l0,78.5" class="g4_1" />
<path d="M242.6,319.5l0,78.5" class="g4_1" />
<path d="M267.9,319.5l0,78.5" class="g4_1" />
<path d="M293.2,319.5l0,78.5" class="g4_1" />
<path d="M318.5,319.5l0,78.5" class="g4_1" />
<path d="M343.8,319.5l0,78.5" class="g4_1" />
<path d="M191.2,345.9l178.6,0" class="g4_1" />
<path d="M191.2,371.5l178.6,0" class="g4_1" />
<path d="M192,319.5l0,78.5" class="g4_1" />
<path d="M369.1,319.5l0,78.5" class="g4_1" />
<path d="M191.2,320.2l178.6,0" class="g4_1" />
<path d="M191.2,397.2l178.6,0" class="g4_1" />
<path fill-rule="evenodd" d="M399.1,345.9l25.3,0l0,-25.7l-25.3,0l0,25.7Z" class="g2_1" />
<path fill-rule="evenodd" d="M424.4,345.9l25.3,0l0,-25.7l-25.3,0l0,25.7Z" class="g2_1" />
<path fill-rule="evenodd" d="M449.7,345.9l25.3,0l0,-25.7l-25.3,0l0,25.7Z" class="g2_1" />
<path fill-rule="evenodd" d="M475,345.9l25.3,0l0,-25.7l-25.3,0l0,25.7Z" class="g2_1" />
<path fill-rule="evenodd" d="M500.3,345.9l25.3,0l0,-25.7l-25.3,0l0,25.7Z" class="g2_1" />
<path fill-rule="evenodd" d="M399.1,371.5l25.3,0l0,-25.6l-25.3,0l0,25.6Z" class="g2_1" />
<path fill-rule="evenodd" d="M424.4,371.5l25.3,0l0,-25.6l-25.3,0l0,25.6Z" class="g2_1" />
<path fill-rule="evenodd" d="M449.7,371.5l25.3,0l0,-25.6l-25.3,0l0,25.6Z" class="g2_1" />
<path fill-rule="evenodd" d="M475,371.5l25.3,0l0,-25.6l-25.3,0l0,25.6Z" class="g2_1" />
<path fill-rule="evenodd" d="M500.3,371.5l25.3,0l0,-25.6l-25.3,0l0,25.6Z" class="g2_1" />
<path fill-rule="evenodd" d="M399.1,397.2l25.3,0l0,-25.7l-25.3,0l0,25.7Z" class="g2_1" />
<path fill-rule="evenodd" d="M424.4,397.2l25.3,0l0,-25.7l-25.3,0l0,25.7Z" class="g2_1" />
<path fill-rule="evenodd" d="M449.7,397.2l25.3,0l0,-25.7l-25.3,0l0,25.7Z" class="g2_1" />
<path fill-rule="evenodd" d="M475,397.2l25.3,0l0,-25.7l-25.3,0l0,25.7Z" class="g2_1" />
<path fill-rule="evenodd" d="M500.3,397.2l25.3,0l0,-25.7l-25.3,0l0,25.7Z" class="g2_1" />
<path d="M424.4,319.5l0,78.5" class="g4_1" />
<path d="M449.7,319.5l0,78.5" class="g4_1" />
<path d="M475,319.5l0,78.5" class="g4_1" />
<path d="M500.3,319.5l0,78.5" class="g4_1" />
<path d="M398.4,345.9l128,0" class="g4_1" />
<path d="M398.4,371.5l128,0" class="g4_1" />
<path d="M399.1,319.5l0,78.5" class="g4_1" />
<path d="M525.6,319.5l0,78.5" class="g4_1" />
<path d="M398.4,320.2l128,0" class="g4_1" />
<path d="M398.4,397.2l128,0" class="g4_1" />
<path fill-rule="evenodd" d="M555.2,345.9l25.1,0l0,-25.7l-25.1,0l0,25.7Z" class="g2_1" />
<path fill-rule="evenodd" d="M580.3,345.9l25,0l0,-25.7l-25,0l0,25.7Z" class="g2_1" />
<path fill-rule="evenodd" d="M605.3,345.9l25.1,0l0,-25.7l-25.1,0l0,25.7Z" class="g2_1" />
<path fill-rule="evenodd" d="M630.4,345.9l25,0l0,-25.7l-25,0l0,25.7Z" class="g2_1" />
<path fill-rule="evenodd" d="M655.4,345.9l25.1,0l0,-25.7l-25.1,0l0,25.7Z" class="g2_1" />
<path fill-rule="evenodd" d="M555.2,371.5l25.1,0l0,-25.6l-25.1,0l0,25.6Z" class="g2_1" />
<path fill-rule="evenodd" d="M580.3,371.5l25,0l0,-25.6l-25,0l0,25.6Z" class="g2_1" />
<path fill-rule="evenodd" d="M605.3,371.5l25.1,0l0,-25.6l-25.1,0l0,25.6Z" class="g2_1" />
<path fill-rule="evenodd" d="M630.4,371.5l25,0l0,-25.6l-25,0l0,25.6Z" class="g2_1" />
<path fill-rule="evenodd" d="M655.4,371.5l25.1,0l0,-25.6l-25.1,0l0,25.6Z" class="g2_1" />
<path fill-rule="evenodd" d="M555.2,397.2l25.1,0l0,-25.7l-25.1,0l0,25.7Z" class="g2_1" />
<path fill-rule="evenodd" d="M580.3,397.2l25,0l0,-25.7l-25,0l0,25.7Z" class="g2_1" />
<path fill-rule="evenodd" d="M605.3,397.2l25.1,0l0,-25.7l-25.1,0l0,25.7Z" class="g2_1" />
<path fill-rule="evenodd" d="M630.4,397.2l25,0l0,-25.7l-25,0l0,25.7Z" class="g2_1" />
<path fill-rule="evenodd" d="M655.4,397.2l25.1,0l0,-25.7l-25.1,0l0,25.7Z" class="g2_1" />
<path fill-rule="evenodd" d="M555.2,422.9l25.1,0l0,-25.7l-25.1,0l0,25.7Z" class="g2_1" />
<path fill-rule="evenodd" d="M580.3,422.9l25,0l0,-25.7l-25,0l0,25.7Z" class="g2_1" />
<path fill-rule="evenodd" d="M605.3,422.9l25.1,0l0,-25.7l-25.1,0l0,25.7Z" class="g2_1" />
<path fill-rule="evenodd" d="M630.4,422.9l25,0l0,-25.7l-25,0l0,25.7Z" class="g2_1" />
<path fill-rule="evenodd" d="M655.4,422.9l25.1,0l0,-25.7l-25.1,0l0,25.7Z" class="g2_1" />
<path d="M580.3,319.5l0,104.1" class="g4_1" />
<path d="M605.3,319.5l0,104.1" class="g4_1" />
<path d="M630.4,319.5l0,104.1" class="g4_1" />
<path d="M655.4,319.5l0,104.1" class="g4_1" />
<path d="M554.4,345.9l126.8,0" class="g4_1" />
<path d="M554.4,371.5l126.8,0" class="g4_1" />
<path d="M554.4,397.2l126.8,0" class="g4_1" />
<path d="M555.2,319.5l0,104.1" class="g4_1" />
<path d="M680.5,319.5l0,104.1" class="g4_1" />
<path d="M554.4,320.2l126.8,0" class="g4_1" />
<path d="M554.4,422.9l126.8,0" class="g4_1" />
<path fill-rule="evenodd" d="M733.1,345.9l25.1,0l0,-25.7l-25.1,0l0,25.7Z" class="g2_1" />
<path fill-rule="evenodd" d="M758.2,345.9l25,0l0,-25.7l-25,0l0,25.7Z" class="g2_1" />
<path fill-rule="evenodd" d="M733.1,371.5l25.1,0l0,-25.6l-25.1,0l0,25.6Z" class="g2_1" />
<path fill-rule="evenodd" d="M758.2,371.5l25,0l0,-25.6l-25,0l0,25.6Z" class="g2_1" />
<path fill-rule="evenodd" d="M733.1,397.2l25.1,0l0,-25.7l-25.1,0l0,25.7Z" class="g2_1" />
<path fill-rule="evenodd" d="M758.2,397.2l25,0l0,-25.7l-25,0l0,25.7Z" class="g2_1" />
<path fill-rule="evenodd" d="M733.1,422.9l25.1,0l0,-25.7l-25.1,0l0,25.7Z" class="g2_1" />
<path fill-rule="evenodd" d="M758.2,422.9l25,0l0,-25.7l-25,0l0,25.7Z" class="g2_1" />
<path fill-rule="evenodd" d="M733.1,448.5l25.1,0l0,-25.6l-25.1,0l0,25.6Z" class="g2_1" />
<path fill-rule="evenodd" d="M758.2,448.5l25,0l0,-25.6l-25,0l0,25.6Z" class="g2_1" />
<path fill-rule="evenodd" d="M733.1,474.2l25.1,0l0,-25.7l-25.1,0l0,25.7Z" class="g2_1" />
<path fill-rule="evenodd" d="M758.2,474.2l25,0l0,-25.7l-25,0l0,25.7Z" class="g2_1" />
<path fill-rule="evenodd" d="M733.1,499.9l25.1,0l0,-25.7l-25.1,0l0,25.7Z" class="g2_1" />
<path fill-rule="evenodd" d="M758.2,499.9l25,0l0,-25.7l-25,0l0,25.7Z" class="g2_1" />
<path fill-rule="evenodd" d="M733.1,525.5l25.1,0l0,-25.6l-25.1,0l0,25.6Z" class="g2_1" />
<path fill-rule="evenodd" d="M758.2,525.5l25,0l0,-25.6l-25,0l0,25.6Z" class="g2_1" />
<path d="M758.2,319.5l0,206.8" class="g4_1" />
<path d="M732.3,345.9l51.7,0" class="g4_1" />
<path d="M732.3,371.5l51.7,0" class="g4_1" />
<path d="M732.3,397.2l51.7,0" class="g4_1" />
<path d="M732.3,422.9l51.7,0" class="g4_1" />
<path d="M732.3,448.5l51.7,0" class="g4_1" />
<path d="M732.3,474.2l51.7,0" class="g4_1" />
<path d="M732.3,499.9l51.7,0" class="g4_1" />
<path d="M733.1,319.5l0,206.8" class="g4_1" />
<path d="M783.2,319.5l0,206.8" class="g4_1" />
<path d="M732.3,320.2l51.7,0" class="g4_1" />
<path d="M732.3,525.5l51.7,0" class="g4_1" />
<path fill-rule="evenodd" d="M11.8,345.5l25.3,0l0,-25.3l-25.3,0l0,25.3Z" class="g5_1" />
<path fill-rule="evenodd" d="M11.8,370.8l25.3,0l0,-25.3l-25.3,0l0,25.3Z" class="g5_1" />
<path d="M11.1,345.5l26.8,0" class="g4_1" />
<path d="M11.8,319.5l0,52.1" class="g4_1" />
<path d="M37.1,319.5l0,52.1" class="g4_1" />
<path d="M11.1,320.2l26.8,0" class="g4_1" />
<path d="M11.1,370.8l26.8,0" class="g4_1" />
<text 
x="21" 
y="337" 
dx="0" 
class="s4_1"
>1</text>

<text 
x="21" 
y="362" 
dx="0" 
class="s4_1"
>5</text>

<path fill-rule="evenodd" d="M167.4,346.1l25.3,0l0,-25.3l-25.3,0l0,25.3Z" class="g5_1" />
<path fill-rule="evenodd" d="M167.4,371.4l25.3,0l0,-25.3l-25.3,0l0,25.3Z" class="g5_1" />
<path fill-rule="evenodd" d="M167.4,396.7l25.3,0l0,-25.3l-25.3,0l0,25.3Z" class="g5_1" />
<path d="M166.6,346.1l26.9,0" class="g4_1" />
<path d="M166.6,371.4l26.9,0" class="g4_1" />
<path d="M167.4,320l0,77.4" class="g4_1" />
<path d="M192.7,320l0,77.4" class="g4_1" />
<path d="M166.6,320.8l26.9,0" class="g4_1" />
<path d="M166.6,396.7l26.9,0" class="g4_1" />
<text 
x="177" 
y="337" 
dx="0" 
class="s4_1"
>2</text>

<text 
x="177" 
y="362" 
dx="0" 
class="s4_1"
>4</text>

<text 
x="177" 
y="388" 
dx="0" 
class="s4_1"
>5</text>

<path fill-rule="evenodd" d="M374.3,345.5l25.3,0l0,-25.3l-25.3,0l0,25.3Z" class="g5_1" />
<path fill-rule="evenodd" d="M374.3,370.8l25.3,0l0,-25.3l-25.3,0l0,25.3Z" class="g5_1" />
<path fill-rule="evenodd" d="M374.3,396.1l25.3,0l0,-25.3l-25.3,0l0,25.3Z" class="g5_1" />
<path d="M373.6,345.5l26.8,0" class="g4_1" />
<path d="M373.6,370.8l26.8,0" class="g4_1" />
<path d="M374.3,319.5l0,77.4" class="g4_1" />
<path d="M399.6,319.5l0,77.4" class="g4_1" />
<path d="M373.6,320.2l26.8,0" class="g4_1" />
<path d="M373.6,396.1l26.8,0" class="g4_1" />
<text 
x="384" 
y="337" 
dx="0" 
class="s4_1"
>3</text>

<text 
x="384" 
y="362" 
dx="0" 
class="s4_1"
>6</text>

<text 
x="384" 
y="387" 
dx="0" 
class="s4_1"
>8</text>

<path fill-rule="evenodd" d="M530.3,345.5l25.3,0l0,-25.3l-25.3,0l0,25.3Z" class="g5_1" />
<path fill-rule="evenodd" d="M530.3,370.8l25.3,0l0,-25.3l-25.3,0l0,25.3Z" class="g5_1" />
<path fill-rule="evenodd" d="M530.3,396.1l25.3,0l0,-25.3l-25.3,0l0,25.3Z" class="g5_1" />
<path fill-rule="evenodd" d="M530.3,421.4l25.3,0l0,-25.3l-25.3,0l0,25.3Z" class="g5_1" />
<path d="M529.6,345.5l26.8,0" class="g4_1" />
<path d="M529.6,370.8l26.8,0" class="g4_1" />
<path d="M529.6,396.1l26.8,0" class="g4_1" />
<path d="M530.3,319.5l0,102.7" class="g4_1" />
<path d="M555.6,319.5l0,102.7" class="g4_1" />
<path d="M529.6,320.2l26.8,0" class="g4_1" />
<path d="M529.6,421.4l26.8,0" class="g4_1" />
<text 
x="540" 
y="337" 
dx="0" 
class="s4_1"
>1</text>

<text 
x="540" 
y="362" 
dx="0" 
class="s4_1"
>4</text>

<text 
x="540" 
y="387" 
dx="0" 
class="s4_1"
>5</text>

<text 
x="540" 
y="413" 
dx="0" 
class="s4_1"
>7</text>

<path d="M320.1,287.2l30.9,0l0,-17.5l61.9,0l0,17.5l30.9,0l-61.9,17.6Z" class="g2_1" />
<path d="M320.1,287.2l30.9,0l0,-17.5l61.9,0l0,17.5l30.9,0l-61.9,17.6Z" class="g6_1" />


<!-- Any embedded fonts defined here -->
<style type="text/css" ><![CDATA[

@font-face {
	font-family: CambriaMath_9;
	src: url("fonts/CambriaMath_9.woff") format("woff");
}

@font-face {
	font-family: Calibri-Bold_b;
	src: url("fonts/Calibri-Bold_b.woff") format("woff");
}

]]></style>

</svg>
